<svg xmlns="http://www.w3.org/2000/svg" xmlns:xlink="http://www.w3.org/1999/xlink" xmlns:lucid="lucid" width="1758.87" height="680"><g transform="translate(-40 -120)" lucid:page-tab-id="0_0"><path d="M520 300h160v120H520z" stroke="#000" stroke-width="2" fill="#fff"/><use xlink:href="#a" transform="matrix(1,0,0,1,525,305) translate(30.924999999999997 59.0875)"/><use xlink:href="#b" transform="matrix(1,0,0,1,525,305) translate(82.82499999999999 59.0875)"/><path d="M1118.87 300h160v120h-160z" stroke="#000" stroke-width="2" fill="#fff"/><use xlink:href="#c" transform="matrix(1,0,0,1,1123.8666666666666,305) translate(14.074999999999996 48.775)"/><use xlink:href="#d" transform="matrix(1,0,0,1,1123.8666666666666,305) translate(22.624999999999993 70.375)"/><path d="M180 408c0 6.63-26.86 12-60 12s-60-5.37-60-12v-96c0-6.63 26.86-12 60-12s60 5.37 60 12z" stroke="#000" stroke-width="2" fill="#fff"/><path d="M180 312c0 6.63-26.86 12-60 12s-60-5.37-60-12" stroke="#000" stroke-width="2" fill="none"/><use xlink:href="#e" transform="matrix(1,0,0,1,65,329) translate(21.599999999999994 46.65)"/><path d="M288 140c17.67 0 32 13.43 32 30s-14.33 30-32 30h-96c-17.67 0-32-13.43-32-30s14.33-30 32-30z" stroke="#000" stroke-width="2" fill="#fff"/><use xlink:href="#f" transform="matrix(1,0,0,1,165,145) translate(51.55 30.025)"/><path d="M302 300h96l32 60-32 60h-96l-32-60z" stroke="#000" stroke-width="2" fill="#fff"/><use xlink:href="#g" transform="matrix(1,0,0,1,275,305) translate(43.029999999999994 38.4625)"/><use xlink:href="#h" transform="matrix(1,0,0,1,275,305) translate(18.029999999999998 60.0625)"/><use xlink:href="#i" transform="matrix(1,0,0,1,275,305) translate(111.98 60.0625)"/><use xlink:href="#j" transform="matrix(1,0,0,1,275,305) translate(21.604999999999997 81.66250000000001)"/><use xlink:href="#k" transform="matrix(1,0,0,1,275,305) translate(74.455 81.66250000000001)"/><path d="M182 360h68.36" stroke="#000" stroke-width="2" fill="none"/><path d="M182.03 361H181v-2h1.03z"/><path d="M265.63 360l-14.27 4.64v-9.28z" stroke="#000" stroke-width="2"/><path d="M240 202v48h110v30.5" stroke="#000" stroke-width="2" fill="none"/><path d="M241 202.03h-2V201h2z"/><path d="M350 295.76l-4.64-14.26h9.28z" stroke="#000" stroke-width="2"/><path d="M432.13 360h68.37" stroke="#000" stroke-width="2" fill="none"/><path d="M432.16 361h-1.56l.53-1-.53-1h1.56z"/><path d="M515.76 360l-14.26 4.64v-9.28z" stroke="#000" stroke-width="2"/><path d="M520 460h160v120H520z" stroke="#000" stroke-width="2" fill="#fff"/><use xlink:href="#l" transform="matrix(1,0,0,1,525,465) translate(45.575 48.775)"/><use xlink:href="#m" transform="matrix(1,0,0,1,525,465) translate(26.025 70.375)"/><path d="M432.13 360h42.94v160h25.43" stroke="#000" stroke-width="2" fill="none"/><path d="M432.16 361h-1.56l.53-1-.53-1h1.56z"/><path d="M515.76 520l-14.26 4.64v-9.28z" stroke="#000" stroke-width="2"/><path d="M832 300h96l32 60-32 60h-96l-32-60z" stroke="#000" stroke-width="2" fill="#fff"/><use xlink:href="#n" transform="matrix(1,0,0,1,805,305) translate(26.554999999999993 48.775)"/><use xlink:href="#o" transform="matrix(1,0,0,1,805,305) translate(103.45500000000001 48.775)"/><use xlink:href="#p" transform="matrix(1,0,0,1,805,305) translate(29.43 70.375)"/><use xlink:href="#q" transform="matrix(1,0,0,1,805,305) translate(83.68 70.375)"/><path d="M682 360h98.36" stroke="#000" stroke-width="2" fill="none"/><path d="M682.03 361H681v-2h1.03z"/><path d="M795.63 360l-14.27 4.64v-9.28z" stroke="#000" stroke-width="2"/><path d="M818 140c17.67 0 32 13.43 32 30s-14.33 30-32 30h-96c-17.67 0-32-13.43-32-30s14.33-30 32-30z" stroke="#000" stroke-width="2" fill="#fff"/><use xlink:href="#r" transform="matrix(1,0,0,1,695,145) translate(50.25 30.025)"/><path d="M770 202v48h110v30.5" stroke="#000" stroke-width="2" fill="none"/><path d="M771 202.03h-2V201h2z"/><path d="M880 295.76l-4.64-14.26h9.28z" stroke="#000" stroke-width="2"/><path d="M962.13 360h137.23" stroke="#000" stroke-width="2" fill="none"/><path d="M962.16 361h-1.56l.53-1-.53-1h1.56z"/><path d="M1114.63 360l-14.27 4.64v-9.28z" stroke="#000" stroke-width="2"/><path d="M800 740h738.87v40H800z" stroke="#000" stroke-width="2" fill="#fff"/><use xlink:href="#s" transform="matrix(1,0,0,1,805,745) translate(284.1 18.15)"/><use xlink:href="#t" transform="matrix(1,0,0,1,805,745) translate(332 18.15)"/><use xlink:href="#u" transform="matrix(1,0,0,1,805,745) translate(366 18.15)"/><path d="M1118.87 460h160v120h-160z" stroke="#000" stroke-width="2" fill="#fff"/><use xlink:href="#l" transform="matrix(1,0,0,1,1123.8666666666666,465) translate(45.575 48.775)"/><use xlink:href="#v" transform="matrix(1,0,0,1,1123.8666666666666,465) translate(22.549999999999997 70.375)"/><path d="M962.13 360h77.37v160h59.86" stroke="#000" stroke-width="2" fill="none"/><path d="M962.16 361h-1.56l.53-1-.53-1h1.56z"/><path d="M1114.63 520l-14.27 4.64v-9.28z" stroke="#000" stroke-width="2"/><path d="M1410.87 300h96l32 60-32 60h-96l-32-60z" stroke="#000" stroke-width="2" fill="#fff"/><use xlink:href="#w" transform="matrix(1,0,0,1,1383.8666666666668,305) translate(11.579999999999993 38.4625)"/><use xlink:href="#x" transform="matrix(1,0,0,1,1383.8666666666668,305) translate(74.43 38.4625)"/><use xlink:href="#y" transform="matrix(1,0,0,1,1383.8666666666668,305) translate(99.43 38.4625)"/><use xlink:href="#z" transform="matrix(1,0,0,1,1383.8666666666668,305) translate(28.579999999999995 60.0625)"/><use xlink:href="#A" transform="matrix(1,0,0,1,1383.8666666666668,305) translate(44.529999999999994 81.66250000000001)"/><path d="M1280.87 360h78.36" stroke="#000" stroke-width="2" fill="none"/><path d="M1280.9 361h-1.03v-2h1.02z"/><path d="M1374.5 360l-14.27 4.64v-9.28z" stroke="#000" stroke-width="2"/><path d="M1778.87 408c0 6.63-26.87 12-60 12-33.14 0-60-5.37-60-12v-96c0-6.63 26.86-12 60-12 33.13 0 60 5.37 60 12z" stroke="#000" stroke-width="2" fill="#fff"/><path d="M1778.87 312c0 6.63-26.87 12-60 12-33.14 0-60-5.37-60-12" stroke="#000" stroke-width="2" fill="none"/><use xlink:href="#B" transform="matrix(1,0,0,1,1663.8666666666668,329) translate(4.049999999999997 35.9)"/><use xlink:href="#k" transform="matrix(1,0,0,1,1663.8666666666668,329) translate(52 35.9)"/><use xlink:href="#C" transform="matrix(1,0,0,1,1663.8666666666668,329) translate(7.574999999999996 57.5)"/><path d="M1541 360h98.36" stroke="#000" stroke-width="2" fill="none"/><path d="M1541.03 361h-1.56l.53-1-.53-1h1.56z"/><path d="M1654.63 360l-14.27 4.64v-9.28z" stroke="#000" stroke-width="2"/><path d="M520 140c22.1 0 40 13.43 40 30s-17.9 30-40 30H400c-22.1 0-40-13.43-40-30s17.9-30 40-30z" stroke="#000" stroke-width="2" fill="#fff"/><g><use xlink:href="#D" transform="matrix(1,0,0,1,365,145) translate(15.625 30.025)"/></g><path d="M460 202v48H350v30.5" stroke="#000" stroke-width="2" fill="none"/><path d="M461 202.03h-2V201h2z"/><path d="M350 295.76l-4.64-14.26h9.28z" stroke="#000" stroke-width="2"/><path d="M1040 140c22.1 0 40 13.43 40 30s-17.9 30-40 30H920c-22.1 0-40-13.43-40-30s17.9-30 40-30z" stroke="#000" stroke-width="2" fill="#fff"/><g><use xlink:href="#E" transform="matrix(1,0,0,1,885,145) translate(5.674999999999997 30.025)"/></g><path d="M980 202v48H880v30.5" stroke="#000" stroke-width="2" fill="none"/><path d="M981 202.03h-2V201h2z"/><path d="M880 295.76l-4.64-14.26h9.28z" stroke="#000" stroke-width="2"/><path d="M880 422v298.5" stroke="#000" stroke-width="2" fill="none"/><path d="M881 422.03h-2V421h2z"/><path d="M880 735.76l-4.64-14.26h9.28z" stroke="#000" stroke-width="2"/><path d="M880 738V439.5" stroke="#000" stroke-width="2" fill="none"/><path d="M881 739h-2v-1.03h2z"/><path d="M880 424.24l4.64 14.26h-9.28z" stroke="#000" stroke-width="2"/><path d="M1458.87 738V439.5" stroke="#000" stroke-width="2" fill="none"/><path d="M1459.87 739h-2v-1.03h2z"/><path d="M1458.87 424.24l4.63 14.26h-9.27z" stroke="#000" stroke-width="2"/><defs><path d="M205 0l-28-72H64L36 0H1l101-248h38L239 0h-34zm-38-99l-47-123c-12 45-31 82-46 123h93" id="F"/><path d="M117-194c89-4 53 116 60 194h-32v-121c0-31-8-49-39-48C34-167 62-67 57 0H25l-1-190h30c1 10-1 24 2 32 11-22 29-35 61-36" id="G"/><path d="M59-47c-2 24 18 29 38 22v24C64 9 27 4 27-40v-127H5v-23h24l9-43h21v43h35v23H59v120" id="H"/><path d="M24 0v-261h32V0H24" id="I"/><path d="M114-163C36-179 61-72 57 0H25l-1-190h30c1 12-1 29 2 39 6-27 23-49 58-41v29" id="J"/><path d="M155-56V0h-30v-56H8v-25l114-167h33v167h35v25h-35zm-30-156c-27 46-58 90-88 131h88v-131" id="K"/><g id="a"><use transform="matrix(0.05,0,0,0.05,0,0)" xlink:href="#F"/><use transform="matrix(0.05,0,0,0.05,12,0)" xlink:href="#G"/><use transform="matrix(0.05,0,0,0.05,22,0)" xlink:href="#H"/><use transform="matrix(0.05,0,0,0.05,27,0)" xlink:href="#I"/><use transform="matrix(0.05,0,0,0.05,30.950000000000003,0)" xlink:href="#J"/><use transform="matrix(0.05,0,0,0.05,36.9,0)" xlink:href="#K"/></g><path d="M127-220V0H93v-220H8v-28h204v28h-85" id="L"/><path d="M100-194c63 0 86 42 84 106H49c0 40 14 67 53 68 26 1 43-12 49-29l28 8c-11 28-37 45-77 45C44 4 14-33 15-96c1-61 26-98 85-98zm52 81c6-60-76-77-97-28-3 7-6 17-6 28h103" id="M"/><g id="b"><use transform="matrix(0.05,0,0,0.05,0,0)" xlink:href="#L"/><use transform="matrix(0.05,0,0,0.05,10.3,0)" xlink:href="#J"/><use transform="matrix(0.05,0,0,0.05,16.25,0)" xlink:href="#M"/><use transform="matrix(0.05,0,0,0.05,26.25,0)" xlink:href="#M"/></g><path d="M233-177c-1 41-23 64-60 70L243 0h-38l-65-103H63V0H30v-248c88 3 205-21 203 71zM63-129c60-2 137 13 137-47 0-61-80-42-137-45v92" id="N"/><path d="M115-194c55 1 70 41 70 98S169 2 115 4C84 4 66-9 55-30l1 105H24l-1-265h31l2 30c10-21 28-34 59-34zm-8 174c40 0 45-34 45-75s-6-73-45-74c-42 0-51 32-51 76 0 43 10 73 51 73" id="O"/><path d="M100-194c63 0 86 42 84 106H49c0 40 14 67 53 68 26 1 43-12 49-29l28 8c-11 28-37 45-77 45C44 4 14-33 15-96c1-61 26-98 85-98zm52 81c6-60-76-77-97-28-3 7-6 17-6 28h103zm-74-98c8-23 27-35 38-54h36v5l-58 49H78" id="P"/><path d="M135-143c-3-34-86-38-87 0 15 53 115 12 119 90S17 21 10-45l28-5c4 36 97 45 98 0-10-56-113-15-118-90-4-57 82-63 122-42 12 7 21 19 24 35" id="Q"/><path d="M141-36C126-15 110 5 73 4 37 3 15-17 15-53c-1-64 63-63 125-63 3-35-9-54-41-54-24 1-41 7-42 31l-33-3c5-37 33-52 76-52 45 0 72 20 72 64v82c-1 20 7 32 28 27v20c-31 9-61-2-59-35zM48-53c0 20 12 33 32 33 41-3 63-29 60-74-43 2-92-5-92 41" id="R"/><path d="M24-231v-30h32v30H24zM24 0v-190h32V0H24" id="S"/><path d="M100-194c62-1 85 37 85 99 1 63-27 99-86 99S16-35 15-95c0-66 28-99 85-99zM99-20c44 1 53-31 53-75 0-43-8-75-51-75s-53 32-53 75 10 74 51 75" id="T"/><g id="c"><use transform="matrix(0.05,0,0,0.05,0,0)" xlink:href="#N"/><use transform="matrix(0.05,0,0,0.05,12.950000000000001,0)" xlink:href="#M"/><use transform="matrix(0.05,0,0,0.05,22.950000000000003,0)" xlink:href="#O"/><use transform="matrix(0.05,0,0,0.05,32.95,0)" xlink:href="#J"/><use transform="matrix(0.05,0,0,0.05,38.900000000000006,0)" xlink:href="#P"/><use transform="matrix(0.05,0,0,0.05,48.900000000000006,0)" xlink:href="#Q"/><use transform="matrix(0.05,0,0,0.05,57.900000000000006,0)" xlink:href="#M"/><use transform="matrix(0.05,0,0,0.05,67.9,0)" xlink:href="#G"/><use transform="matrix(0.05,0,0,0.05,77.9,0)" xlink:href="#H"/><use transform="matrix(0.05,0,0,0.05,82.9,0)" xlink:href="#R"/><use transform="matrix(0.05,0,0,0.05,92.9,0)" xlink:href="#H"/><use transform="matrix(0.05,0,0,0.05,97.9,0)" xlink:href="#S"/><use transform="matrix(0.05,0,0,0.05,101.85000000000001,0)" xlink:href="#T"/><use transform="matrix(0.05,0,0,0.05,111.85000000000001,0)" xlink:href="#G"/></g><path d="M33 0v-248h34V0H33" id="U"/><path d="M210-169c-67 3-38 105-44 169h-31v-121c0-29-5-50-35-48C34-165 62-65 56 0H25l-1-190h30c1 10-1 24 2 32 10-44 99-50 107 0 11-21 27-35 58-36 85-2 47 119 55 194h-31v-121c0-29-5-49-35-48" id="V"/><path d="M85-194c31 0 48 13 60 33l-1-100h32l1 261h-30c-2-10 0-23-3-31C134-8 116 4 85 4 32 4 16-35 15-94c0-66 23-100 70-100zm9 24c-40 0-46 34-46 75 0 40 6 74 45 74 42 0 51-32 51-76 0-42-9-74-50-73" id="W"/><g id="d"><use transform="matrix(0.05,0,0,0.05,0,0)" xlink:href="#U"/><use transform="matrix(0.05,0,0,0.05,5,0)" xlink:href="#G"/><use transform="matrix(0.05,0,0,0.05,15,0)" xlink:href="#H"/><use transform="matrix(0.05,0,0,0.05,20,0)" xlink:href="#M"/><use transform="matrix(0.05,0,0,0.05,30,0)" xlink:href="#J"/><use transform="matrix(0.05,0,0,0.05,35.95,0)" xlink:href="#V"/><use transform="matrix(0.05,0,0,0.05,50.900000000000006,0)" xlink:href="#P"/><use transform="matrix(0.05,0,0,0.05,60.900000000000006,0)" xlink:href="#W"/><use transform="matrix(0.05,0,0,0.05,70.9,0)" xlink:href="#S"/><use transform="matrix(0.05,0,0,0.05,74.85000000000001,0)" xlink:href="#R"/><use transform="matrix(0.05,0,0,0.05,84.85000000000001,0)" xlink:href="#S"/><use transform="matrix(0.05,0,0,0.05,88.80000000000001,0)" xlink:href="#J"/><use transform="matrix(0.05,0,0,0.05,94.75000000000001,0)" xlink:href="#M"/></g><path d="M63-220v92h138v28H63V0H30v-248h175v28H63" id="X"/><path d="M96-169c-40 0-48 33-48 73s9 75 48 75c24 0 41-14 43-38l32 2c-6 37-31 61-74 61-59 0-76-41-82-99-10-93 101-131 147-64 4 7 5 14 7 22l-32 3c-4-21-16-35-41-35" id="Y"/><path d="M106-169C34-169 62-67 57 0H25v-261h32l-1 103c12-21 28-36 61-36 89 0 53 116 60 194h-32v-121c2-32-8-49-39-48" id="Z"/><path d="M33 0v-38h34V0H33" id="aa"/><g id="e"><use transform="matrix(0.05,0,0,0.05,0,0)" xlink:href="#X"/><use transform="matrix(0.05,0,0,0.05,10.950000000000001,0)" xlink:href="#S"/><use transform="matrix(0.05,0,0,0.05,14.9,0)" xlink:href="#Y"/><use transform="matrix(0.05,0,0,0.05,23.900000000000002,0)" xlink:href="#Z"/><use transform="matrix(0.05,0,0,0.05,33.900000000000006,0)" xlink:href="#S"/><use transform="matrix(0.05,0,0,0.05,37.85000000000001,0)" xlink:href="#M"/><use transform="matrix(0.05,0,0,0.05,47.85000000000001,0)" xlink:href="#J"/><use transform="matrix(0.05,0,0,0.05,52.80000000000001,0)" xlink:href="#aa"/><use transform="matrix(0.05,0,0,0.05,57.80000000000001,0)" xlink:href="#Y"/></g><g id="f"><use transform="matrix(0.05,0,0,0.05,0,0)" xlink:href="#F"/><use transform="matrix(0.05,0,0,0.05,12,0)" xlink:href="#G"/><use transform="matrix(0.05,0,0,0.05,22,0)" xlink:href="#H"/><use transform="matrix(0.05,0,0,0.05,27,0)" xlink:href="#I"/><use transform="matrix(0.05,0,0,0.05,30.950000000000003,0)" xlink:href="#J"/><use transform="matrix(0.05,0,0,0.05,36.9,0)" xlink:href="#K"/></g><path d="M179-190L93 31C79 59 56 82 12 73V49c39 6 53-20 64-50L1-190h34L92-34l54-156h33" id="ab"/><g id="g"><use transform="matrix(0.05,0,0,0.05,0,0)" xlink:href="#F"/><use transform="matrix(0.05,0,0,0.05,12,0)" xlink:href="#G"/><use transform="matrix(0.05,0,0,0.05,22,0)" xlink:href="#R"/><use transform="matrix(0.05,0,0,0.05,32,0)" xlink:href="#I"/><use transform="matrix(0.05,0,0,0.05,35.95,0)" xlink:href="#ab"/><use transform="matrix(0.05,0,0,0.05,44.95,0)" xlink:href="#Q"/><use transform="matrix(0.05,0,0,0.05,53.95,0)" xlink:href="#M"/></g><path d="M185-189c-5-48-123-54-124 2 14 75 158 14 163 119 3 78-121 87-175 55-17-10-28-26-33-46l33-7c5 56 141 63 141-1 0-78-155-14-162-118-5-82 145-84 179-34 5 7 8 16 11 25" id="ac"/><path d="M141 0L90-78 38 0H4l68-98-65-92h35l48 74 47-74h35l-64 92 68 98h-35" id="ad"/><path d="M145-31C134-9 116 4 85 4 32 4 16-35 15-94c0-59 17-99 70-100 32-1 48 14 60 33 0-11-1-24 2-32h30l-1 268h-32zM93-21c41 0 51-33 51-76s-8-73-50-73c-40 0-46 35-46 75s5 74 45 74" id="ae"/><path d="M84 4C-5 8 30-112 23-190h32v120c0 31 7 50 39 49 72-2 45-101 50-169h31l1 190h-30c-1-10 1-25-2-33-11 22-28 36-60 37" id="af"/><g id="h"><use transform="matrix(0.05,0,0,0.05,0,0)" xlink:href="#ac"/><use transform="matrix(0.05,0,0,0.05,12,0)" xlink:href="#ab"/><use transform="matrix(0.05,0,0,0.05,21,0)" xlink:href="#G"/><use transform="matrix(0.05,0,0,0.05,31,0)" xlink:href="#H"/><use transform="matrix(0.05,0,0,0.05,36,0)" xlink:href="#R"/><use transform="matrix(0.05,0,0,0.05,46,0)" xlink:href="#ad"/><use transform="matrix(0.05,0,0,0.05,55,0)" xlink:href="#S"/><use transform="matrix(0.05,0,0,0.05,58.95,0)" xlink:href="#ae"/><use transform="matrix(0.05,0,0,0.05,68.95,0)" xlink:href="#af"/><use transform="matrix(0.05,0,0,0.05,78.95,0)" xlink:href="#M"/></g><g id="i"><use transform="matrix(0.05,0,0,0.05,0,0)" xlink:href="#W"/><use transform="matrix(0.05,0,0,0.05,10,0)" xlink:href="#af"/></g><path d="M101-234c-31-9-42 10-38 44h38v23H63V0H32v-167H5v-23h27c-7-52 17-82 69-68v24" id="ag"/><g id="j"><use transform="matrix(0.05,0,0,0.05,0,0)" xlink:href="#ag"/><use transform="matrix(0.05,0,0,0.05,5,0)" xlink:href="#S"/><use transform="matrix(0.05,0,0,0.05,8.95,0)" xlink:href="#Y"/><use transform="matrix(0.05,0,0,0.05,17.95,0)" xlink:href="#Z"/><use transform="matrix(0.05,0,0,0.05,27.950000000000003,0)" xlink:href="#S"/><use transform="matrix(0.05,0,0,0.05,31.899999999999995,0)" xlink:href="#M"/><use transform="matrix(0.05,0,0,0.05,41.9,0)" xlink:href="#J"/></g><g id="k"><use transform="matrix(0.05,0,0,0.05,0,0)" xlink:href="#Q"/><use transform="matrix(0.05,0,0,0.05,9,0)" xlink:href="#T"/><use transform="matrix(0.05,0,0,0.05,19,0)" xlink:href="#af"/><use transform="matrix(0.05,0,0,0.05,29,0)" xlink:href="#J"/><use transform="matrix(0.05,0,0,0.05,34.95,0)" xlink:href="#Y"/><use transform="matrix(0.05,0,0,0.05,43.95,0)" xlink:href="#M"/></g><path d="M30 0v-248h187v28H63v79h144v27H63v87h162V0H30" id="ah"/><g id="l"><use transform="matrix(0.05,0,0,0.05,0,0)" xlink:href="#ah"/><use transform="matrix(0.05,0,0,0.05,12,0)" xlink:href="#J"/><use transform="matrix(0.05,0,0,0.05,17.95,0)" xlink:href="#J"/><use transform="matrix(0.05,0,0,0.05,23.9,0)" xlink:href="#M"/><use transform="matrix(0.05,0,0,0.05,33.9,0)" xlink:href="#af"/><use transform="matrix(0.05,0,0,0.05,43.9,0)" xlink:href="#J"/><use transform="matrix(0.05,0,0,0.05,49.85,0)" xlink:href="#Q"/></g><g id="m"><use transform="matrix(0.05,0,0,0.05,0,0)" xlink:href="#ac"/><use transform="matrix(0.05,0,0,0.05,12,0)" xlink:href="#ab"/><use transform="matrix(0.05,0,0,0.05,21,0)" xlink:href="#G"/><use transform="matrix(0.05,0,0,0.05,31,0)" xlink:href="#H"/><use transform="matrix(0.05,0,0,0.05,36,0)" xlink:href="#R"/><use transform="matrix(0.05,0,0,0.05,46,0)" xlink:href="#ad"/><use transform="matrix(0.05,0,0,0.05,55,0)" xlink:href="#S"/><use transform="matrix(0.05,0,0,0.05,58.95,0)" xlink:href="#ae"/><use transform="matrix(0.05,0,0,0.05,68.95,0)" xlink:href="#af"/><use transform="matrix(0.05,0,0,0.05,78.95,0)" xlink:href="#M"/><use transform="matrix(0.05,0,0,0.05,88.95,0)" xlink:href="#Q"/></g><path d="M30-248c87 1 191-15 191 75 0 78-77 80-158 76V0H30v-248zm33 125c57 0 124 11 124-50 0-59-68-47-124-48v98" id="ai"/><g id="n"><use transform="matrix(0.05,0,0,0.05,0,0)" xlink:href="#ai"/><use transform="matrix(0.05,0,0,0.05,12,0)" xlink:href="#R"/><use transform="matrix(0.05,0,0,0.05,22,0)" xlink:href="#J"/><use transform="matrix(0.05,0,0,0.05,27.950000000000003,0)" xlink:href="#Y"/><use transform="matrix(0.05,0,0,0.05,36.95,0)" xlink:href="#T"/><use transform="matrix(0.05,0,0,0.05,46.95,0)" xlink:href="#af"/><use transform="matrix(0.05,0,0,0.05,56.95,0)" xlink:href="#J"/><use transform="matrix(0.05,0,0,0.05,62.900000000000006,0)" xlink:href="#Q"/></g><g id="o"><use transform="matrix(0.05,0,0,0.05,0,0)" xlink:href="#W"/><use transform="matrix(0.05,0,0,0.05,10,0)" xlink:href="#M"/></g><path d="M47-170H22l-4-78h33" id="aj"/><path d="M115-194c53 0 69 39 70 98 0 66-23 100-70 100C84 3 66-7 56-30L54 0H23l1-261h32v101c10-23 28-34 59-34zm-8 174c40 0 45-34 45-75 0-40-5-75-45-74-42 0-51 32-51 76 0 43 10 73 51 73" id="ak"/><g id="p"><use transform="matrix(0.05,0,0,0.05,0,0)" xlink:href="#I"/><use transform="matrix(0.05,0,0,0.05,3.95,0)" xlink:href="#aj"/><use transform="matrix(0.05,0,0,0.05,7.3500000000000005,0)" xlink:href="#R"/><use transform="matrix(0.05,0,0,0.05,17.35,0)" xlink:href="#J"/><use transform="matrix(0.05,0,0,0.05,23.3,0)" xlink:href="#ak"/><use transform="matrix(0.05,0,0,0.05,33.3,0)" xlink:href="#J"/><use transform="matrix(0.05,0,0,0.05,39.25,0)" xlink:href="#M"/></g><g id="q"><use transform="matrix(0.05,0,0,0.05,0,0)" xlink:href="#F"/><use transform="matrix(0.05,0,0,0.05,12,0)" xlink:href="#G"/><use transform="matrix(0.05,0,0,0.05,22,0)" xlink:href="#H"/><use transform="matrix(0.05,0,0,0.05,27,0)" xlink:href="#I"/><use transform="matrix(0.05,0,0,0.05,30.950000000000003,0)" xlink:href="#J"/></g><path d="M137 0h-34L2-248h35l83 218 83-218h36" id="al"/><g id="r"><use transform="matrix(0.05,0,0,0.05,0,0)" xlink:href="#al"/><use transform="matrix(0.05,0,0,0.05,11.65,0)" xlink:href="#S"/><use transform="matrix(0.05,0,0,0.05,15.600000000000001,0)" xlink:href="#Q"/><use transform="matrix(0.05,0,0,0.05,24.6,0)" xlink:href="#S"/><use transform="matrix(0.05,0,0,0.05,28.55,0)" xlink:href="#H"/><use transform="matrix(0.05,0,0,0.05,33.55,0)" xlink:href="#T"/><use transform="matrix(0.05,0,0,0.05,43.55,0)" xlink:href="#J"/></g><g id="s"><use transform="matrix(0.05,0,0,0.05,0,0)" xlink:href="#L"/><use transform="matrix(0.05,0,0,0.05,8.950000000000001,0)" xlink:href="#R"/><use transform="matrix(0.05,0,0,0.05,18.950000000000003,0)" xlink:href="#ak"/><use transform="matrix(0.05,0,0,0.05,28.950000000000003,0)" xlink:href="#I"/><use transform="matrix(0.05,0,0,0.05,32.900000000000006,0)" xlink:href="#M"/></g><g id="t"><use transform="matrix(0.05,0,0,0.05,0,0)" xlink:href="#W"/><use transform="matrix(0.05,0,0,0.05,10,0)" xlink:href="#M"/><use transform="matrix(0.05,0,0,0.05,20,0)" xlink:href="#Q"/></g><g id="u"><use transform="matrix(0.05,0,0,0.05,0,0)" xlink:href="#ac"/><use transform="matrix(0.05,0,0,0.05,12,0)" xlink:href="#ab"/><use transform="matrix(0.05,0,0,0.05,21,0)" xlink:href="#V"/><use transform="matrix(0.05,0,0,0.05,35.95,0)" xlink:href="#ak"/><use transform="matrix(0.05,0,0,0.05,45.95,0)" xlink:href="#T"/><use transform="matrix(0.05,0,0,0.05,55.95,0)" xlink:href="#I"/><use transform="matrix(0.05,0,0,0.05,59.900000000000006,0)" xlink:href="#M"/><use transform="matrix(0.05,0,0,0.05,69.9,0)" xlink:href="#Q"/></g><g id="v"><use transform="matrix(0.05,0,0,0.05,0,0)" xlink:href="#ac"/><use transform="matrix(0.05,0,0,0.05,12,0)" xlink:href="#P"/><use transform="matrix(0.05,0,0,0.05,22,0)" xlink:href="#V"/><use transform="matrix(0.05,0,0,0.05,36.95,0)" xlink:href="#R"/><use transform="matrix(0.05,0,0,0.05,46.95,0)" xlink:href="#G"/><use transform="matrix(0.05,0,0,0.05,56.95,0)" xlink:href="#H"/><use transform="matrix(0.05,0,0,0.05,61.95,0)" xlink:href="#S"/><use transform="matrix(0.05,0,0,0.05,65.9,0)" xlink:href="#ae"/><use transform="matrix(0.05,0,0,0.05,75.9,0)" xlink:href="#af"/><use transform="matrix(0.05,0,0,0.05,85.9,0)" xlink:href="#M"/><use transform="matrix(0.05,0,0,0.05,95.9,0)" xlink:href="#Q"/></g><path d="M212-179c-10-28-35-45-73-45-59 0-87 40-87 99 0 60 29 101 89 101 43 0 62-24 78-52l27 14C228-24 195 4 139 4 59 4 22-46 18-125c-6-104 99-153 187-111 19 9 31 26 39 46" id="am"/><g id="w"><use transform="matrix(0.05,0,0,0.05,0,0)" xlink:href="#am"/><use transform="matrix(0.05,0,0,0.05,12.950000000000001,0)" xlink:href="#J"/><use transform="matrix(0.05,0,0,0.05,18.900000000000002,0)" xlink:href="#R"/><use transform="matrix(0.05,0,0,0.05,28.900000000000002,0)" xlink:href="#H"/><use transform="matrix(0.05,0,0,0.05,33.900000000000006,0)" xlink:href="#S"/><use transform="matrix(0.05,0,0,0.05,37.85000000000001,0)" xlink:href="#T"/><use transform="matrix(0.05,0,0,0.05,47.85000000000001,0)" xlink:href="#G"/></g><g id="x"><use transform="matrix(0.05,0,0,0.05,0,0)" xlink:href="#W"/><use transform="matrix(0.05,0,0,0.05,10,0)" xlink:href="#af"/></g><g id="y"><use transform="matrix(0.05,0,0,0.05,0,0)" xlink:href="#Y"/><use transform="matrix(0.05,0,0,0.05,9,0)" xlink:href="#T"/><use transform="matrix(0.05,0,0,0.05,19,0)" xlink:href="#W"/><use transform="matrix(0.05,0,0,0.05,29,0)" xlink:href="#M"/></g><g id="z"><use transform="matrix(0.05,0,0,0.05,0,0)" xlink:href="#R"/><use transform="matrix(0.05,0,0,0.05,10,0)" xlink:href="#Q"/><use transform="matrix(0.05,0,0,0.05,19,0)" xlink:href="#Q"/><use transform="matrix(0.05,0,0,0.05,28,0)" xlink:href="#M"/><use transform="matrix(0.05,0,0,0.05,38,0)" xlink:href="#V"/><use transform="matrix(0.05,0,0,0.05,52.95,0)" xlink:href="#ak"/><use transform="matrix(0.05,0,0,0.05,62.95,0)" xlink:href="#I"/><use transform="matrix(0.05,0,0,0.05,66.9,0)" xlink:href="#M"/><use transform="matrix(0.05,0,0,0.05,76.9,0)" xlink:href="#af"/><use transform="matrix(0.05,0,0,0.05,86.9,0)" xlink:href="#J"/></g><g id="A"><use transform="matrix(0.05,0,0,0.05,0,0)" xlink:href="#R"/><use transform="matrix(0.05,0,0,0.05,10,0)" xlink:href="#Q"/><use transform="matrix(0.05,0,0,0.05,19,0)" xlink:href="#Q"/><use transform="matrix(0.05,0,0,0.05,28,0)" xlink:href="#T"/><use transform="matrix(0.05,0,0,0.05,38,0)" xlink:href="#Y"/><use transform="matrix(0.05,0,0,0.05,47,0)" xlink:href="#S"/><use transform="matrix(0.05,0,0,0.05,50.95,0)" xlink:href="#P"/></g><g id="B"><use transform="matrix(0.05,0,0,0.05,0,0)" xlink:href="#am"/><use transform="matrix(0.05,0,0,0.05,12.950000000000001,0)" xlink:href="#T"/><use transform="matrix(0.05,0,0,0.05,22.950000000000003,0)" xlink:href="#W"/><use transform="matrix(0.05,0,0,0.05,32.95,0)" xlink:href="#M"/></g><g id="C"><use transform="matrix(0.05,0,0,0.05,0,0)" xlink:href="#F"/><use transform="matrix(0.05,0,0,0.05,12,0)" xlink:href="#Q"/><use transform="matrix(0.05,0,0,0.05,21,0)" xlink:href="#Q"/><use transform="matrix(0.05,0,0,0.05,30,0)" xlink:href="#M"/><use transform="matrix(0.05,0,0,0.05,40,0)" xlink:href="#V"/><use transform="matrix(0.05,0,0,0.05,54.95,0)" xlink:href="#ak"/><use transform="matrix(0.05,0,0,0.05,64.95,0)" xlink:href="#I"/><use transform="matrix(0.05,0,0,0.05,68.9,0)" xlink:href="#M"/><use transform="matrix(0.05,0,0,0.05,78.9,0)" xlink:href="#af"/><use transform="matrix(0.05,0,0,0.05,88.9,0)" xlink:href="#J"/></g><path d="M30 0v-248h33v221h125V0H30" id="an"/><g id="D"><use transform="matrix(0.05,0,0,0.05,0,0)" xlink:href="#ac"/><use transform="matrix(0.05,0,0,0.05,12,0)" xlink:href="#ab"/><use transform="matrix(0.05,0,0,0.05,21,0)" xlink:href="#G"/><use transform="matrix(0.05,0,0,0.05,31,0)" xlink:href="#H"/><use transform="matrix(0.05,0,0,0.05,36,0)" xlink:href="#R"/><use transform="matrix(0.05,0,0,0.05,46,0)" xlink:href="#ad"/><use transform="matrix(0.05,0,0,0.05,55,0)" xlink:href="#ah"/><use transform="matrix(0.05,0,0,0.05,67,0)" xlink:href="#J"/><use transform="matrix(0.05,0,0,0.05,72.95,0)" xlink:href="#J"/><use transform="matrix(0.05,0,0,0.05,78.9,0)" xlink:href="#T"/><use transform="matrix(0.05,0,0,0.05,88.9,0)" xlink:href="#J"/><use transform="matrix(0.05,0,0,0.05,94.85000000000001,0)" xlink:href="#an"/><use transform="matrix(0.05,0,0,0.05,104.85000000000001,0)" xlink:href="#S"/><use transform="matrix(0.05,0,0,0.05,108.80000000000001,0)" xlink:href="#Q"/><use transform="matrix(0.05,0,0,0.05,117.80000000000001,0)" xlink:href="#H"/><use transform="matrix(0.05,0,0,0.05,122.80000000000001,0)" xlink:href="#M"/><use transform="matrix(0.05,0,0,0.05,132.8,0)" xlink:href="#G"/><use transform="matrix(0.05,0,0,0.05,142.8,0)" xlink:href="#M"/><use transform="matrix(0.05,0,0,0.05,152.8,0)" xlink:href="#J"/></g><g id="E"><use transform="matrix(0.05,0,0,0.05,0,0)" xlink:href="#ac"/><use transform="matrix(0.05,0,0,0.05,12,0)" xlink:href="#M"/><use transform="matrix(0.05,0,0,0.05,22,0)" xlink:href="#V"/><use transform="matrix(0.05,0,0,0.05,36.95,0)" xlink:href="#R"/><use transform="matrix(0.05,0,0,0.05,46.95,0)" xlink:href="#G"/><use transform="matrix(0.05,0,0,0.05,56.95,0)" xlink:href="#H"/><use transform="matrix(0.05,0,0,0.05,61.95,0)" xlink:href="#S"/><use transform="matrix(0.05,0,0,0.05,65.9,0)" xlink:href="#Y"/><use transform="matrix(0.05,0,0,0.05,74.9,0)" xlink:href="#ah"/><use transform="matrix(0.05,0,0,0.05,86.9,0)" xlink:href="#J"/><use transform="matrix(0.05,0,0,0.05,92.85000000000001,0)" xlink:href="#J"/><use transform="matrix(0.05,0,0,0.05,98.80000000000001,0)" xlink:href="#T"/><use transform="matrix(0.05,0,0,0.05,108.80000000000001,0)" xlink:href="#J"/><use transform="matrix(0.05,0,0,0.05,114.75,0)" xlink:href="#an"/><use transform="matrix(0.05,0,0,0.05,124.75,0)" xlink:href="#S"/><use transform="matrix(0.05,0,0,0.05,128.70000000000002,0)" xlink:href="#Q"/><use transform="matrix(0.05,0,0,0.05,137.70000000000002,0)" xlink:href="#H"/><use transform="matrix(0.05,0,0,0.05,142.70000000000002,0)" xlink:href="#M"/><use transform="matrix(0.05,0,0,0.05,152.70000000000002,0)" xlink:href="#G"/><use transform="matrix(0.05,0,0,0.05,162.70000000000002,0)" xlink:href="#M"/><use transform="matrix(0.05,0,0,0.05,172.70000000000002,0)" xlink:href="#J"/></g></defs></g></svg>